<?xml version="1.0" standalone="no"?>
<!DOCTYPE svg PUBLIC "-//W3C//DTD SVG 1.1//EN" "http://www.w3.org/Graphics/SVG/1.1/DTD/svg11.dtd">
<svg xmlns="http://www.w3.org/2000/svg" id="Layer_2" viewBox="0 0 65.67 57.23" width="65.66999816894531" height="57.22999954223633"><defs><style>.cls-1{fill:#2424ae;stroke-width:0px;}</style></defs><g id="Main"><path class="cls-1" d="m48.42,41.45s-.09-.03-.13-.05c-.18.08-.37.13-.53.24-.5.31-1.07.56-1.47.97-.6.61-.71,1.45-.66,2.3.02.33.08.66.13.99.1.71.15,1.42.31,2.12.34,1.45.91,2.82,1.65,4.11.2.35.44.67.68,1,.11.15.21.16.35-.03.31-.45.5-.42.74.07.05.09.08.19.12.29.21.55.3,1.17.88,1.5.21.12.42.24.63.37.03-.02.05-.05.08-.07-.04-.12-.07-.25-.12-.37-.21-.5-.46-.98-.62-1.49-.08-.26-.22-.69.11-.81.37-.14.44.3.57.56.38.76.75,1.53,1.12,2.29.22.45.62.71,1.06.89.13.05.33.04.47-.02.39-.17.57-.17.88.13.35.34.75.56,1.23.61.75.09,1.5.2,2.26.2,1.86,0,3.72-.03,5.58-.07.3,0,.62-.08.89-.21.59-.29.87-.84,1.03-1.45.08-.3-.14-.82-.4-.89-.41-.1-.83-.22-1.25-.21-.65.02-1.3.17-1.95.19-.97.03-1.94.06-2.91-.03-1.08-.09-2.16-.26-3.23-.47-.9-.18-1.82-.37-2.67-.73-1.43-.61-2.44-1.7-3.03-3.16-.23-.56-.48-1.12-.63-1.71-.27-1.1-.48-2.22-.71-3.33-.04-.17-.1-.21-.26-.13-.27.12-.41.03-.38-.28.02-.19.06-.41.17-.56.35-.52.27-.97-.12-1.43-.07-.09-.07-.27-.05-.41.05-.3.13-.6.19-.9Z"/><path class="cls-1" d="m39.41,50.3c.12.12.18.15.2.2.12.27.26.25.43.05.14-.17.3-.33.43-.5.33-.44.72-.86.95-1.35.31-.65.5-1.36.73-2.04.45-1.33.92-2.65,1.69-3.84.16-.25.43-.5.45-.76.04-.68.42-1.14.9-1.49.37-.27.83-.42,1.26-.59.07-.03.21.1.31.16-.06.09-.1.21-.18.27-.11.09-.26.15-.38.23-.25.15-.55.27-.75.48-.34.35-.58.77-.77,1.25-.3.74-.74,1.42-1.08,2.14-.21.46-.33.97-.49,1.46.04.02.08.04.12.06.13-.14.26-.28.37-.43.65-.92,1.01-2.02,1.83-2.83.28-.28.42-.71.68-1.02.45-.56,1.16-.72,1.76-1.05.51-.28.57-.66.15-1.1-.07.06-.13.15-.21.18-.1.03-.22.01-.33.02,0-.11-.02-.23.01-.34.03-.11.12-.2.18-.29.17-.23.2-.44-.07-.63-.27-.19-.49-.18-.71.06-.11.12-.19.27-.31.37-.46.36-.94.7-1.41,1.04-.31.22-.63.42-.94.65-.77.56-1.63,1-2.13,1.87-.18.31-.41.59-.62.89-.54.79-1.1,1.57-1.46,2.47-.24.61-.56,1.2-.86,1.79-.06.12-.17.22-.26.33-.05-.02-.09-.04-.14-.06.07-.28.12-.58.22-.85.61-1.73,1.36-3.4,2.38-4.93.43-.64.88-1.3,1.6-1.63.4-.19.72-.45,1.02-.75.19-.18.4-.35.61-.51.98-.75,1.93-1.53,3.07-2.03.17-.08.28-.29.42-.43-.02-.03-.05-.07-.07-.1-.1,0-.2,0-.3.02-.52.15-1.07.26-1.56.47-.89.38-1.81.73-2.47,1.53-.72.88-1.5,1.71-2.24,2.57-1,1.16-1.83,2.45-2.54,3.81-.63,1.21-.97,2.52-1.37,3.82-.16.52-.24,1.07-.36,1.61-.12.53-.21,1.08-.36,1.6-.09.3.02.51.11.86.27-.33.58-.55.68-.85.16-.49.16-1.03.25-1.54.04-.22.12-.44.18-.66.05,0,.11,0,.16-.01.08.18.21.35.22.53.02.21-.08.42-.11.64-.04.26-.05.53-.08.81.81-.23.91-.94,1.15-1.6Z"/><path class="cls-1" d="m43.12,6.08c-.36-.45-.59-.91-.96-1.18-.68-.51-1.41-1-2.18-1.33-.84-.35-1.78-.45-2.64-.77-1.07-.39-2.15-.46-3.26-.42-.15,0-.3.03-.45,0-1.07-.13-2.14-.26-3.21-.42-1.51-.23-3.03-.19-4.55-.25-.64-.02-1.28-.06-1.92-.06-.78,0-1.55.03-2.33.06-.2,0-.36.12-.58-.04-.1-.08-.39,0-.54.09-.68.43-1.42.68-2.22.72-.7.03-1.4,0-2.09.07-1.13.11-2.26.28-3.39.44-.17.02-.34.15-.46.27-.21.21-.14.46.16.51.23.04.47.02.7,0,.89-.07,1.78-.16,2.66-.24.23-.02.47-.03.69-.08,1.44-.29,2.88-.6,4.32-.89,1.42-.29,2.85-.23,4.28-.11.73.06,1.46.13,2.19-.04.22-.05.52-.05.71.05.43.24.86.32,1.34.31.83-.01,1.64.13,2.44.38.32.1.69.08,1.03.09.1,0,.26-.11.28-.19.08-.34.31-.36.52-.22.35.22.71.16,1.08.17.3.01.6.06.9.11.07.01.13.09.25.17-.13.04-.19.04-.24.07-.11.06-.21.14-.32.21.1.12.17.29.3.34.15.06.34.03.51.01.12-.01.24-.12.36-.12.83,0,1.66,0,2.49.04.32.02.66.11.95.25.34.16.31.57-.05.69-.26.08-.6.14-.84.06-.77-.27-1.53-.25-2.31-.12-.57.09-1.13.12-1.69-.08-.41-.14-.82-.32-1.25-.38-.96-.13-1.92-.21-2.88-.3-.68-.07-1.36-.14-2.04-.19-.35-.03-.7,0-1.05-.17-.42-.2-.92.24-.83.72.27.02.55.03.82.06,1.39.11,2.77.21,4.15.35.5.05.99.18,1.47.31.3.08.6.31.89.3,1.66-.08,3.3.12,4.94.31.68.08,1.4.07,2.02.44.11.07.31-.01.47,0,.34.01.68.05,1.03.05.12,0,.24-.04.35-.06Z"/><path class="cls-1" d="m17.7,52.67c.04-.12.1-.23.1-.35,0-.19-.07-.39-.05-.58,0-.13.11-.26.17-.39.09.09.22.17.26.28.08.26.13.54.15.81.03.48.29.8.76.84.06,0,.17-.06.18-.11.05-.27.21-.52.02-.81-.15-.23-.03-.38.25-.42.11-.02.25-.09.3-.17.23-.45.45-.9.64-1.37.04-.09-.03-.29-.11-.36-.17-.15-.7.02-.81.22-.06.11-.12.23-.17.34-.12.25-.29.39-.59.27-.29-.12-.42-.4-.3-.68.06-.14.15-.26.23-.39.1-.17.15-.34-.05-.45-.28-.16-.57-.29-.87-.42-.03-.01-.16.13-.17.21-.01.11.02.23.08.33.11.19.04.35-.13.39-.09.02-.27-.11-.33-.22-.09-.17-.11-.37-.14-.56-.04-.32-.77-.87-1.07-.79-.11.03-.26.14-.28.23-.06.34-.31.4-.64.48,0-.37.06-.73-.02-1.06-.07-.34-.34-.59-.76-.69-.03.12-.08.24-.08.35-.01.35.01.71,0,1.06-.03.44-.06.88-.13,1.31-.13.78-.1.85.6,1.23.26.14.51.28.77.41.19.09.39.16.61.25,0-.14,0-.24,0-.33-.02-.3-.06-.6-.04-.9,0-.11.14-.21.22-.31.07.09.18.17.2.27.07.31.11.63.14.95.04.41.11.77.58.9.15.04.29.14.48.23Z"/><path class="cls-1" d="m32.68,52.07c.01.29.05.53.02.75-.06.47-.17.94-.24,1.42-.02.15-.05.35.2.36.36.01.76-.29.82-.65.05-.33.04-.67.09-1,.14-.84.32-1.68.46-2.53.02-.1-.04-.23-.1-.3-.03-.03-.18.02-.26.06-.72.31-1.42.64-2.15.92-.37.14-.78.19-1.17.28-.44.1-.88.17-1.31.3-.23.07-.59-.06-.65.32-.1.65-.19,1.31-.27,1.97-.03.23,0,.47-.04.7-.02.14-.12.26-.22.47.28,0,.48.02.68,0,.07,0,.18-.16.17-.19-.19-.38.28-.55.27-.88,0-.05.24-.14.37-.15.06,0,.16.18.16.28.01.16-.04.32-.06.48-.03.2,0,.36.26.34.12,0,.25.04.35-.01.15-.07.35-.18.39-.32.08-.26.05-.55.09-.82.05-.33.11-.66.22-.97.04-.13.23-.2.35-.3.04.15.13.31.11.46-.06.45-.18.9-.23,1.35-.02.14.11.3.16.45.18-.1.38-.18.55-.3.06-.04.07-.17.09-.26.05-.36.07-.74.15-1.09.09-.41.17-.86.73-1.12Z"/><path class="cls-1" d="m8.98,41.75c0,.22.04.34.02.45-.1.59-.19,1.18-.34,1.75-.12.47-.27.94-.47,1.38-.13.28-.05.5.11.67.49.54,1.02,1.04,1.53,1.56.52.52.59.52,1.19,0,.04.24.11.44.09.63-.06.43.21.64.5.84.19.13.32.09.33-.18.02-.53.04-1.07.07-1.6.01-.26.02-.53.04-.79.01-.16.02-.34.09-.47.21-.37.2-.61-.09-.94-.11-.12-.21-.25-.32-.38-.13.08-.21.14-.3.18-.1.04-.22.06-.32.09-.03-.12-.1-.25-.08-.36.12-.46-.31-1.14-.86-1.26,0,.24.03.47,0,.69-.08.46-.19.92-.3,1.38-.04.19-.11.38-.17.57-.04,0-.08,0-.12-.01-.06-.09-.18-.19-.18-.28,0-.42-.01-.85.06-1.26.07-.37.28-.72.36-1.09.05-.22.03-.51-.08-.7-.17-.29-.45-.52-.75-.86Z"/><path class="cls-1" d="m47.13,26.81c-.11.3-.27.41-.58.47-.58.11-1.2.01-1.73.38-.06.04-.19-.03-.29-.03-.11,0-.27-.02-.32.05-.08.09-.15.27-.11.37.03.09.22.18.33.18.39-.03.77-.09,1.16-.16.51-.1,1-.23,1.51-.34.09-.02.22-.05.27,0,.11.1.22.24.26.39.01.05-.18.18-.3.23-.12.05-.27.03-.4.06-.58.14-1.16.3-1.75.44-.3.07-.61.09-.91.16-.22.06-.37.4-.29.59.13.29.33.13.52.07.2-.07.4-.16.61-.2.49-.1.98-.19,1.48-.25.37-.04.75-.04,1.12-.04.2,0,.43.04.46-.23.02-.21-.04-.43-.05-.65-.01-.22-.02-.45-.03-.67,0-.09.01-.18,0-.28,0-.4.02-.8-.01-1.2-.02-.29-.03-.63-.18-.86-.1-.15-.43-.21-.66-.21-.55,0-1.09.03-1.64.06-.31.02-.63.02-.93.08-.13.03-.22.21-.32.33.08.06.15.18.23.18.44.02.89.01,1.33,0,.12,0,.25-.06.37-.06.24,0,.49.02.72.06.05,0,.14.13.12.17-.02.07-.1.18-.16.19-.22.04-.46.08-.68.05-.62-.07-1.23-.05-1.8.16-.13.05-.19.32-.28.49.14.07.29.21.43.19.45-.05.89-.2,1.35-.24.38-.04.78-.13,1.14.09Z"/><path class="cls-1" d="m23.04,37.04c.18-.1.44-.2.67-.35,1.37-.92,2.37-2.24,3.52-3.39.99-.99,2-1.93,3.32-2.43.68-.26,1.09-.72,1.21-1.44.01-.07,0-.18-.05-.21-.05-.04-.17-.05-.22-.01-.37.21-.74.44-1.1.67-.44.27-.88.52-1.3.82-.35.25-.68.54-.99.84-.63.63-1.23,1.32-2.08,1.66-.41.16-.76.37-1.04.7-.04.05-.11.08-.16.13-.34.33-.69.66-1.02,1-.32.32-.64.65-.96.97-.19.19-.38.36-.56.55-.04.05-.04.22-.02.23.23.09.46.16.78.27Z"/><path class="cls-1" d="m18.03,42.66c.14-.53.28-1,.4-1.48.01-.05-.02-.15-.07-.18-.12-.07-.33-.2-.37-.16-.17.15-.34.35-.42.56-.1.29-.1.61-.15.92-.08.47.04.72.46.94.26.13.51.26.77.39.49.24.97.52,1.47.72.41.17.86.24,1.29.37.31.09.6.26.92.31.29.05.73.1.89-.06.39-.41.65-.93.95-1.42.04-.07.01-.25-.04-.28-.11-.06-.27-.1-.39-.06-.51.18-.66.6-.74,1.1-.03.18-.22.43-.37.46-.21.04-.45-.1-.67-.19-.04-.02-.06-.2-.03-.27.13-.24.34-.45.44-.7.11-.26.15-.56.17-.85,0-.06-.26-.13-.4-.19-.24-.1-.32.08-.43.23-.08.11-.15.25-.26.32-.17.11-.37.15-.38-.17,0-.17.01-.34.03-.51.05-.33-.17-.4-.42-.42-.25-.03-.47-.01-.47.34,0,.34-.17.6-.48.73-.11.05-.33.05-.38-.02-.08-.1-.1-.3-.06-.42.13-.32.32-.62.5-.96-.27-.2-.53-.4-.85-.64-.1.49-.17.91-.28,1.32-.05.17-.16.35-.28.47-.03.03-.25-.13-.35-.19Z"/><path class="cls-1" d="m15.89,25.32c.74-.63,1.45-1.15,2.37-1.43.6-.18,1.19-.64,1.58-1.23.29-.43.68-.71,1.19-.87.49-.15.97-.37,1.4-.64.4-.26.73-.64,1.11-.94.19-.16.41-.36.63-.38.28-.03.43-.16.62-.32.14-.12.32-.2.5-.26.16-.05.36,0,.51-.07.78-.32,1.56-.66,2.33-1,.06-.03.13-.1.15-.16.01-.04-.06-.12-.11-.15-.31-.18-.62-.22-.96-.08-.64.25-1.26.56-1.93.72-.98.23-1.78.82-2.62,1.31-.56.33-1.04.81-1.61,1.17-1.03.65-2.01,1.38-3,2.09-.69.49-1.37,1-2.06,1.5-.26.19-.25.43-.12.74Z"/><path class="cls-1" d="m34.22,6.15s-.03.07-.04.11c.08.05.15.12.24.14.34.09.69.16,1.03.24.55.14,1.1.35,1.66.41,1.21.15,2.4.46,3.63.4.1,0,.21.02.31.04.79.14,1.58.27,2.37.41.22.04.44.07.64.16.12.05.18.22.27.33-.12.07-.24.17-.37.2-.21.04-.44.05-.66.02-.72-.1-1.45-.23-2.17-.33-.18-.03-.37,0-.56,0-.02.37.18.46.43.5.45.07.89.15,1.34.2.49.06.99.12,1.49.14.44.01.88-.03,1.32-.07.05,0,.15-.2.12-.28-.28-.86-.82-1.47-1.73-1.65-.66-.13-1.32-.22-1.99-.29-1.09-.11-2.17-.19-3.26-.29-.2-.02-.41-.01-.58-.1-.48-.24-.98-.25-1.5-.24-.28,0-.56-.05-.83-.06-.39-.01-.78,0-1.17,0Z"/><path class="cls-1" d="m37.47,47.06c-.11.13-.23.26-.33.39-.14.17-.25.37-.41.51-.47.4-.95.79-1.45,1.15-.41.29-.63.69-.72,1.16-.06.33-.05.67-.08,1-.08.88-.17,1.77-.25,2.65,0,.04.03.11.07.14.17.09.55-.13.57-.33.07-.54.16-1.07.2-1.61.03-.31.19-.3.41-.24.26.08.3.28.24.5-.09.31-.22.6-.31.91-.03.1,0,.21.02.32,0,.02.1.04.14.03.43-.11.76-.49.76-.92,0-1,.26-1.97.45-2.94.18-.89.33-1.8.72-2.63,0,0-.01-.02-.05-.07Z"/><path class="cls-1" d="m42.43,11.75c.19.59.45.78.92.81,1.02.07,2.04.16,3.06.23.43.03.52-.12.36-.52-.05-.13-.12-.26-.14-.39-.06-.59-.21-1.14-.56-1.62-.11-.15-.31-.29-.48-.31-.39-.04-.79.01-1.18,0-.64-.02-1.27-.04-1.91-.09-.43-.03-.87-.11-1.3-.14-.08,0-.24.12-.24.18,0,.28.58.76.87.78.7.04,1.41.08,2.11.15.2.02.38.17.57.19.71.08.79.14.9.85-.98-.04-1.96-.09-2.98-.13Z"/><path class="cls-1" d="m6.93,38.77c-.04.11-.06.17-.08.23-.12.39-.24.78-.37,1.17-.27.79-.54,1.58-.84,2.36-.11.28.01.46.17.66.41.5.82,1.01,1.23,1.51.09.1.2.19.32.26.21.14.35.05.43-.16.04-.12.07-.24.07-.37.03-.51-.02-1.04.36-1.48.06-.07.07-.2.06-.3-.03-.43.05-.82.27-1.2.05-.08.03-.25-.02-.34-.11-.18-.26-.33-.41-.53-.16.49-.53.85-.52,1.38,0,.1-.18.21-.28.31-.08-.13-.24-.28-.23-.4.05-.48.14-.97.26-1.44.16-.62.07-1.17-.41-1.69Z"/><path class="cls-1" d="m43.39,34.2c.11,0,.2.01.29,0,.32-.06.64-.14.97-.2.2-.04.4-.09.6-.11.18-.01.38-.03.54.04.1.04.15.24.18.37,0,.06-.11.19-.18.2-.36.07-.73.09-1.09.16-.29.06-.57.15-.85.25-.19.07-.36.2-.53.3-.07.04-.17.08-.19.14-.06.2-.09.41-.14.61.2-.05.41-.07.59-.15.3-.12.56-.34.87-.41.78-.18,1.57-.3,2.36-.43.16-.03.37-.01.49.08.26.18.47.08.66-.05.19-.13.2-.33.19-.58-.02-.36-.18-.71,0-1.09.2-.43-.06-.72-.54-.71-.11,0-.23.04-.34.06-.63.16-1.2.52-1.9.48-.4-.02-.81.13-1.22.14-.66.03-.81.17-.76.89Z"/><path class="cls-1" d="m4.61,32.6c-.08.04-.17.06-.17.09-.04.36-.28.56-.56.73-.09.06-.13.21-.18.33-.18.44-.23.95-.66,1.26-.06.04-.09.14-.1.21-.12.58-.24,1.17-.36,1.75-.06.27.02.45.3.56.09.04.23.16.22.23-.06.49.23.84.44,1.22.06.1.14.19.21.28.1-.08.23-.15.3-.25.08-.12.12-.28.18-.41.19-.43.39-.85.56-1.29.2-.52.42-1.04.55-1.59.09-.38,0-.79-.26-1.19-.06.13-.09.2-.12.27-.3.61-.59,1.22-.91,1.82-.05.1-.26.2-.37.17-.1-.03-.21-.22-.22-.34,0-.14.08-.29.14-.44.06-.14.2-.29.19-.43-.01-.64.34-1.13.67-1.6.21-.3.27-.57.25-.9-.01-.15-.06-.29-.1-.48Z"/><path class="cls-1" d="m26.6,55.22s.02-.03.04-.05c.14-.05.3-.06.4-.14.39-.32.52-.85.29-1.3-.14-.29-.05-.45.17-.62.08-.06.14-.17.16-.26.06-.29.1-.59.12-.88,0-.08-.1-.22-.16-.22-.19,0-.47-.01-.54.1-.17.26-.42.66-.32.86.22.45.06.68-.24.94-.05.05-.04.16-.09.21-.07.08-.17.19-.24.18-.18-.03-.36-.11-.52-.2-.02-.01.04-.2.07-.3.05-.19.21-.43.15-.57-.11-.26-.04-.43.07-.64.08-.14.16-.28.22-.43.03-.06.04-.17,0-.21-.32-.35-1.07-.22-1.24.23-.25.65-.48,1.31-.73,1.97-.17.45-.11.67.35.82.67.21,1.36.35,2.04.52Z"/><path class="cls-1" d="m25.75,17.4c-.68-.5-1.23-.26-1.72.03-.56.33-1.13.62-1.71.92-.06.03-.14,0-.21.02-.09.02-.19.03-.26.08-.35.24-.71.47-1.05.73-1.19.88-2.37,1.77-3.55,2.65-.49.37-.66.91-.78,1.5.3-.16.53-.39.81-.54.58-.31.99-.91,1.69-1.02.18-.4.64-.53.87-.84.52-.68,1.28-1.01,1.95-1.45.82-.53,1.76-.88,2.56-1.47.26-.19.61-.25.91-.38.16-.07.32-.15.47-.23Z"/><path class="cls-1" d="m47.39,29.78c-.3.03-.6.07-.89.09-.91.07-1.81.19-2.52.83-.09.08-.18.25-.16.37.01.08.22.19.32.17.22-.03.43-.14.65-.21.55-.19,1.05-.6,1.69-.4.1.03.19.08.28.13-.06.11-.09.26-.18.31-.32.19-.66.35-1,.5-.31.14-.64.24-.96.35-.29.1-.61.14-.87.29-.11.06-.11.33-.16.5.12,0,.25.02.36,0,.19-.04.37-.13.55-.18,1.08-.26,2.16-.46,3.27-.42.21,0,.38-.04.38-.29,0-.43.04-.86,0-1.29-.05-.71-.07-.71-.78-.73Z"/><path class="cls-1" d="m8.55,2.8s.03.06.05.09c.11-.03.22-.06.32-.09.13-.04.26-.08.39-.11.32-.08.65-.15.97-.23.11-.03.23-.13.33-.1.42.12.76-.05,1.15-.19.52-.18,1.09-.22,1.64-.32.06-.01.12,0,.17,0,.5,0,1,.04,1.49-.02.93-.12,1.85-.07,2.78,0,.37.03.74,0,1.11-.05.1-.01.25-.2.25-.32,0-.11-.14-.28-.25-.31-.27-.09-.56-.16-.85-.17-.99-.02-1.98-.02-2.97,0-.22,0-.44.05-.65.1-.7.15-1.39.32-2.09.46-.36.07-.73.1-1.1.16-.29.04-.57.1-.86.14-.3.05-.64.01-.88.15-.37.22-.67.55-.99.84Z"/><path class="cls-1" d="m18.87,34.79c.18-.27.33-.46.44-.66.28-.51.58-.99,1.14-1.26.14-.07.25-.3.28-.48.06-.34-.21-.52-.5-.33-.24.16-.43.4-.66.58-.07.06-.25.09-.29.05-.08-.07-.14-.23-.12-.32.05-.2.12-.42.26-.56.43-.4.4-.82.13-1.28-.06-.11-.08-.25-.15-.35-.07-.1-.18-.2-.28-.22-.06-.01-.18.12-.23.21-.14.25-.3.5-.39.77-.09.29-.15.56-.51.65-.12.03-.22.2-.29.33-.15.3-.34.6-.37.92-.02.21.16.49.32.67.16.19.31,0,.45-.12.17-.13.35-.24.53-.36.22.31.05.47-.1.67-.09.12-.21.34-.16.44.1.21.31.38.52.62Z"/><path class="cls-1" d="m37.61,35.41c.05.54-.24.78-.53,1.01-.33.26-.71.45-1.03.72-.5.43-1.03.87-1.17,1.57-.03.15.13.35.24.51.02.02.24-.06.32-.13.16-.15.31-.31.43-.5.4-.65.77-1.33,1.54-1.62.06-.02.1-.1.15-.14.6-.55.98-1.25,1.43-1.92.07-.11.17-.23.17-.34,0-.16-.05-.33-.13-.47-.03-.05-.22-.05-.3-.01-.35.16-.71.32-1.04.51-.48.28-.94.61-1.42.9-.57.35-.82.91-1.06,1.5-.02.05,0,.17.03.18.06.02.16.02.21-.02.17-.14.32-.3.47-.46.35-.36.68-.74,1.05-1.06.15-.13.4-.14.64-.22Z"/><path class="cls-1" d="m47.1,17.73s0,.08-.01.13c-.17.12-.32.34-.5.36-.69.08-1.38.12-2.08.14-.28,0-.5.1-.48.36.01.21.15.42.49.41.75-.02,1.51.05,2.26.06.33,0,.67-.03,1-.07.07,0,.17-.11.17-.17,0-.55,0-1.09-.06-1.64-.01-.13-.18-.32-.3-.34-.83-.11-1.66-.27-2.49-.24-.36.01-.66-.02-.97-.14-.07-.03-.14-.06-.21-.09-.18.59-.13.67.42.8.11.03.21.1.32.12.26.04.52.05.79.07.38.02.76,0,1.14.04.17.02.34.14.5.21Z"/><path class="cls-1" d="m4.47,8.25c.17-.08.34-.16.5-.25.55-.3,1.18-.41,1.69-.83.53-.44,1.22-.56,1.88-.7.29-.07.54-.16.67-.47.08-.21.23-.2.44-.14.25.07.55.11.79.03.78-.25,1.55-.55,2.32-.83.08-.03.15-.12.22-.18-.08-.05-.16-.14-.24-.14-.63,0-1.26,0-1.88.03-.17,0-.38.1-.5.23-.38.4-.86.47-1.37.44-.37-.02-.68.09-.93.36-.08.09-.2.16-.32.2-.69.23-1.37.44-2.06.66-.02,0-.03.03-.05.05-.32.24-.65.47-.97.71-.26.2-.35.65-.18.83Z"/><path class="cls-1" d="m18.91,26.78c-.26.25-.51.49-.77.72-.19.17-.42.29-.58.48-.32.37-.63.76-.91,1.17-.22.31-.45.64-.57,1-.07.21.05.5.14.74.15.44.33.87.53,1.39.19-.27.32-.46.46-.65.53-.72,1.07-1.44,1.59-2.17.29-.41.29-.85,0-1.16-.38.48-.75.94-1.13,1.41-.07.09-.18.21-.28.21-.1,0-.29-.07-.31-.15-.03-.1.03-.27.11-.36.49-.54,1-1.07,1.5-1.6.21-.22.31-.8.2-1.02Z"/><path class="cls-1" d="m27.75,43.26c-.25,0-.4,0-.55,0-.54.03-.53.03-.7.57-.08.26-.2.5-.31.75-.06.12-.15.22-.21.34-.1.18-.46.27-.67.14-.24-.15-.14-.3-.03-.5.17-.31.29-.64.41-.97.02-.05-.06-.2-.13-.22-.31-.11-.52.02-.66.33-.1.24-.25.46-.37.69-.12.25-.23.5-.31.76-.02.07.09.25.16.26.43.06.87.14,1.31.11.48-.03.95-.3,1.43.03.05.04.22-.01.27-.08.2-.24.43-.26.71-.15.27.11.45-.01.56-.26.06-.15.14-.31.14-.47,0-.41.15-.74.41-1.05.08-.09.1-.24.17-.4-.58.08-1.06.2-1.35.64-.17.25-.31.52-.43.79-.07.16-.14.35-.32.24-.13-.08-.29-.33-.26-.44.11-.31.16-.68.53-.84.07-.03.1-.13.22-.29Z"/><path class="cls-1" d="m16.93,4.07c0,.07,0,.15-.01.22.2.07.4.21.6.2.63-.02,1.27-.04,1.89-.14,1.48-.23,2.98-.3,4.48-.34.6-.01,1.2-.02,1.79-.06.15-.01.32-.12.44-.24.14-.14.11-.28-.12-.3-.3-.03-.6-.06-.9-.07-1.01-.03-2.02-.05-3.04-.06-.41,0-.82-.05-1.21.03-.96.2-1.89.54-2.9.54-.34,0-.68.15-1.02.22Z"/><path class="cls-1" d="m25.5,10.07c0-.06,0-.12,0-.18-.33-.05-.66-.17-.99-.15-1.21.06-2.42.14-3.62.26-.41.04-.87.15-1.21.39-.78.55-1.62.86-2.56.97-.15.02-.3.13-.45.2.01.04.02.08.03.12.09.03.19.1.28.1.6,0,1.2.06,1.79-.15.7-.24,1.42-.42,2.14-.6.75-.19,1.54-.27,2.27-.53.45-.16.89-.22,1.35-.24.32-.01.63-.12.95-.18Z"/><path class="cls-1" d="m25.46,12.41s-.03.1-.05.15c.13.07.25.19.39.21.53.1,1.07.23,1.61.22.54,0,1.08-.15,1.63-.23.18-.03.42,0,.53-.09.38-.34.85-.3,1.3-.36.5-.07,1.01-.09,1.48-.25.36-.13.65-.3,1.01-.04.06.04.19.03.27,0,.23-.06.31-.31.15-.47-.34-.35-1.05-.49-1.52-.32-.35.13-.7.27-1.06.33-1.27.21-2.55.38-3.82.57-.64.09-1.28.19-1.92.29Z"/><path class="cls-1" d="m23.13,51.21c-.02-.46-.34-.46-.57-.54-.24-.08-.25.15-.3.29-.19.55-.38,1.09-.55,1.64-.07.22-.19.35-.43.28-.24-.06-.37-.21-.32-.46.02-.14.06-.28.12-.4.22-.39.47-.77.69-1.16.16-.27.1-.4-.2-.49-.42-.13-.68.05-.79.58-.16.79-.46,1.51-.92,2.17-.23.32-.2.39.19.52.47.16.95.29,1.42.46.46.16.69.03.67-.46-.02-.37.11-.64.32-.92.09-.12.12-.29.17-.43.09-.23.16-.47.26-.69.07-.16.18-.31.24-.4Z"/><path class="cls-1" d="m18.3,10.33s-.01-.07-.02-.1c-.05-.03-.1-.08-.14-.07-.82.07-1.68,0-2.45.25-1.39.45-2.73,1.08-4.09,1.63-.09.04-.19.09-.26.16-.07.07-.11.18-.17.27.1.03.19.09.29.1.72.06,1.39-.11,2.04-.4.68-.29,1.37-.56,2.06-.83.4-.16.79-.31,1.19-.46.51-.19,1.02-.38,1.54-.56Z"/><path class="cls-1" d="m48.1,36.08s0-.08.01-.12c-.11-.06-.21-.14-.33-.18-.65-.23-1.27.11-1.89.18-.66.08-1.31.3-1.96.45-.32.08-.66.11-.97.23-.13.05-.2.25-.29.38.11.03.21.06.32.1.07.03.19.05.2.1.02.08,0,.2-.06.25-.14.14-.3.25-.47.36-.35.23-.58.54-.68.94-.03.12.04.26.06.39.1-.03.23-.03.31-.09.44-.34.92-.65,1.3-1.06,1-1.05,2.25-1.52,3.62-1.78.28-.05.55-.11.83-.16Z"/><path class="cls-1" d="m11.29,35.39c-.24-.42-.26-.7-.08-1.01.14-.25.26-.52.32-.79.07-.3.17-.65-.19-.95-.11.13-.21.24-.29.35-.2.28-.39.57-.58.86-.65.99-.47,2.23.44,3.02.3.26.39.26.58-.06.2-.34.36-.7.54-1.05.12-.25.29-.49.32-.75.02-.22-.06-.56-.22-.66-.22-.15-.23.2-.32.33-.17.22-.32.44-.52.72Z"/><path class="cls-1" d="m2.5,11.24c.18.12.56-.05.77-.34.14-.19.35-.34.54-.49.1-.09.23-.15.35-.22.54-.3,1.05-.65,1.62-.89.71-.31,1.46-.52,2.19-.79.18-.07.4-.16.32-.42-.09-.31.1-.36.33-.42.16-.04.32-.14.47-.21-.02-.05-.03-.09-.05-.14-.28.05-.58.05-.83.16-.76.31-1.51.66-2.27.99-.08.04-.18.04-.26.08-.21.09-.43.15-.61.28-.46.34-.84.78-1.5.79-.38,0-.61.3-.7.7-.07.31-.22.59-.35.93Z"/><path class="cls-1" d="m1.35,13.77c.45-.03.82-.13,1.09-.36.8-.69,1.7-1.21,2.64-1.68.13-.06.25-.17.36-.26.25-.21.48-.45.75-.64.4-.28.76-.58.95-1.15-.21.06-.37.07-.49.14-.29.17-.56.39-.86.56-.58.33-1.29.52-1.74.98-.45.45-1.18.47-1.46,1.11-.02.05-.11.09-.17.1-.61.11-.85.57-1.07,1.2Z"/><path class="cls-1" d="m4.28,17.87c-.51.42-1.18.62-1.48,1.27-.05.1-.17.16-.24.25-.07.1-.13.21-.19.32-.11.2-.22.4-.32.59-.06.12-.14.23-.17.36-.09.29-.1.65-.44.74-.69.18-.96.77-1.29,1.29-.05.08-.02.28.05.35.07.07.27.1.35.05.25-.17.51-.36.69-.6.55-.71,1.05-1.45,1.61-2.16.47-.6.98-1.15,1.47-1.73.19-.22.2-.46-.03-.74Z"/><path class="cls-1" d="m23.8,21.33c.53.36.95.33,1.34-.06.41-.42.9-.71,1.45-.89.61-.2,1.24-.31,1.84-.54.5-.19.96-.49,1.32-1-.2-.1-.39-.28-.53-.25-.33.08-.63.26-.94.41-.16.08-.31.2-.48.26-.52.19-1.07.31-1.56.54-.68.32-1.34.71-1.99,1.09-.17.1-.29.28-.44.42Z"/><path class="cls-1" d="m37.27,13.09c-.14-.36-.41-.43-.73-.4-.37.04-.74.1-1.11.12-1.23.06-2.47.08-3.7.16-.62.04-1.24.17-1.85.26-.03,0-.05.03-.14.09.13.08.22.17.32.2.18.05.37.03.55.09,1.35.39,2.67-.08,4-.12.43-.01.86-.12,1.29-.09.34.03.64,0,.93-.14.12-.06.26-.1.43-.16Z"/><path class="cls-1" d="m33.76,43.24c.56-.21.91-.56,1.18-.97.31-.46.58-.96.87-1.44.16-.27.29-.54.46-.8.15-.25.33-.48.5-.72.04-.07.05-.16.1-.22.35-.37.72-.73,1.07-1.11.07-.08.07-.22.1-.34-.14-.03-.29-.1-.4-.06-.15.04-.28.16-.39.27-.87.89-1.66,1.86-2.26,2.96-.37.68-.75,1.36-1.12,2.05-.05.09-.05.21-.1.38Z"/><path class="cls-1" d="m13.87,39.94c.07.13.12.27.21.36.09.09.22.15.33.22.07-.11.15-.21.2-.33.13-.35.24-.71.36-1.06.07-.18.18-.35.22-.54.02-.11-.03-.28-.12-.35-.3-.23-.57-.47-.73-.84-.08-.18-.25-.34-.4-.48-.16-.15-.34-.14-.45.09-.14.28-.3.55-.41.84-.17.46-.32.93-.02,1.41.17.26.31.28.45,0,.14-.25.21-.53.33-.78.04-.09.19-.21.24-.19.1.04.21.17.22.26,0,.19-.03.39-.1.57-.1.27-.23.52-.35.8Z"/><path class="cls-1" d="m4.16,25.65c-.3.13-.59.23-.86.36-.1.05-.19.13-.27.22-.19.22-.36.45-.54.67-.53.65-1.11,1.27-1.56,1.96-.29.45-.41,1.02-.58,1.55-.03.11.07.26.11.4.09-.09.2-.16.26-.27.22-.37.37-.81.64-1.13.79-.96,1.63-1.89,2.46-2.81.26-.29.36-.6.33-.95Z"/><path class="cls-1" d="m4.03,27.47c-.16.2-.32.39-.47.59-.56.73-1.12,1.46-1.67,2.2-.29.39-.58.77-.67,1.27-.03.19-.2.35-.29.53-.04.09-.09.22-.06.31.06.21.16.41.25.64.02-.01.08-.03.1-.07.12-.27.26-.54.35-.82.1-.33.26-.59.57-.74.18-.09.27-.2.29-.42.02-.16.16-.31.26-.46.06-.08.15-.14.21-.22.28-.37.53-.78.85-1.11.4-.42.59-1.23.28-1.69Z"/><path class="cls-1" d="m34.76,39.79c-.08-.07-.16-.19-.26-.22-.1-.03-.26,0-.32.07-.37.45-.72.91-1.06,1.38-.07.1-.06.27-.11.39-.07.2-.11.45-.25.58-.82.71-1,1.77-1.47,2.67-.03.05.11.18.17.28.16-.13.33-.26.47-.4.08-.08.1-.24.18-.28.39-.16.43-.53.56-.86.11-.28.23-.55.39-.8.39-.62.81-1.22,1.2-1.85.18-.29.32-.61.5-.97Z"/><path class="cls-1" d="m4.16,21.18c-.22-.27-.69-.29-.87-.05-.18.24-.34.49-.53.72-.85,1.03-1.72,2.04-2.55,3.09-.12.16-.13.57,0,.72.15.19.35-.06.49-.22.59-.67,1.18-1.34,1.77-2.01.15-.17.31-.35.43-.55.36-.62.69-1.25,1.27-1.71Z"/><path class="cls-1" d="m4.17,29.75c-.2.3-.39.54-.54.81-.27.49-.51.99-.78,1.47-.05.1-.15.17-.22.27-.12.17-.25.33-.33.52-.13.29-.14.67-.33.89-.45.49-.33.99-.16,1.52.02.06.1.11.15.16.06-.06.14-.12.16-.19.04-.14-.01-.35.07-.43.3-.28.38-.66.55-1.01.13-.26.25-.51.37-.78.21-.48.49-.92.75-1.38.07-.13.15-.26.24-.38.34-.41.38-.92.07-1.47Z"/><path class="cls-1" d="m4.47,40.69s-.05.02-.07.03c.12.25.23.51.37.75.06.1.19.16.29.24.05-.12.13-.23.15-.35.09-.45.12-.91.24-1.35.09-.31.34-.56.44-.87.16-.49.25-1,.37-1.5.02-.1.03-.22,0-.31-.06-.13-.14-.31-.25-.34-.11-.03-.29.06-.38.15-.15.16-.3.35-.36.55-.28.92-.53,1.85-.78,2.78-.02.06,0,.14,0,.21Z"/><path class="cls-1" d="m1.82,16.04c.21-.19.43-.34.59-.54.2-.24.37-.47.7-.58.21-.08.38-.29.57-.45.15-.12.29-.24.45-.35.14-.09.3-.14.44-.22.14-.08.25-.22.39-.27.52-.18.76-.56.83-1.08,0-.06.02-.17,0-.17-.06-.02-.15-.03-.21-.01-.52.14-.92.48-1.3.85-.1.1-.23.17-.36.25-.59.35-1.25.61-1.7,1.17-.22.27-.47.51-.7.78-.08.1-.17.28-.14.34.06.11.23.15.43.27Z"/><path class="cls-1" d="m15.75,38.83c-.13.21-.26.39-.35.58-.13.27-.23.55-.35.82-.14.32-.04.95.22,1.2.15.15.29.17.38-.07.11-.3.24-.59.34-.89.08-.23.24-.35.44-.26.08.04.1.29.1.44-.01.38-.07.76-.07,1.14,0,.08.15.21.25.21.08,0,.23-.1.26-.19.06-.18.05-.39.09-.58.05-.25.1-.51.2-.74.12-.27.07-.45-.16-.63-.34-.26-.66-.53-1-.8-.1-.08-.2-.14-.34-.24Z"/><path class="cls-1" d="m17.5,20.48c.48-.28,1.16-.21,1.39-.86.89-.77,1.79-1.53,2.92-1.96.17-.07.32-.19.51-.3-.37-.21-2.02.16-2.66.62-.91.66-1.91,1.26-2.15,2.5Z"/><path class="cls-1" d="m27.03,22.15c.29-.12.57-.28.88-.36,1.03-.27,2.06-.52,3.09-.78.09-.02.16-.12.24-.18-.08-.07-.15-.19-.24-.2-.29-.05-.6-.1-.89-.07-.7.08-1.39.27-2.09.3-.71.03-1.08.55-1.58.9-.03.02,0,.2.03.21.18.08.37.12.57.19Z"/><path class="cls-1" d="m13.37,50.26c.04-.48.06-.87.1-1.26.03-.3.01-.63.15-.87.18-.31.15-.57.08-.87-.02-.07-.03-.14-.02-.21.06-.42-.17-.66-.49-.87-.17-.11-.28-.12-.32.1-.08.47-.17.95-.21,1.42-.05.58-.07,1.16-.07,1.74,0,.16.05.36.16.46.16.15.38.23.62.35Z"/><path class="cls-1" d="m6.27,5.13l.02.09c.1.02.22.08.31.05.28-.08.58-.15.83-.3.35-.21.68-.36,1.1-.33.14,0,.3-.03.43-.09.63-.28,1.26-.57,1.97-.61.08,0,.17-.03.22-.09.11-.12.19-.26.28-.39-.15-.08-.31-.23-.45-.22-.33.03-.66.13-.98.21-.86.2-1.72.38-2.58.6-.15.04-.28.23-.36.39-.11.2-.12.44-.44.46-.12,0-.24.15-.35.22Z"/><path class="cls-1" d="m31.63,1.51c.37-.02.65-.03.92-.06.07,0,.13-.1.2-.16-.07-.05-.12-.12-.2-.15-1.74-.54-3.55-.55-5.34-.75-.08,0-.26.11-.26.18,0,.13.05.28.13.38.05.06.19.07.29.08,1.44.16,2.89.32,4.25.47Z"/><path class="cls-1" d="m31.8,30.9c-.33.15-.63.26-.9.43-.46.29-.91.6-1.34.93-.54.41-1.07.85-1.6,1.29-.09.08-.11.24-.17.37.18.04.37.1.55.11.1,0,.21-.09.31-.15.57-.4,1.14-.79,1.69-1.21.42-.32.74-.77,1.26-1,.25-.11.31-.4.19-.78Z"/><path class="cls-1" d="m24.55,51.5c-.1-.08-.2-.23-.34-.26-.15-.04-.43-.04-.48.04-.23.43-.41.88-.58,1.33-.15.39-.22.81-.38,1.2-.21.49-.22.42.32.76.11.07.26.12.38.12.09,0,.23-.09.26-.17.1-.28.16-.57.23-.86.13-.52.26-1.04.39-1.55.05-.18.11-.35.2-.6Z"/><path class="cls-1" d="m14.31,12.85c-.15,0-.24-.02-.3,0-.42.17-.86.3-1.23.54-.34.21-.59.55-.89.83-.18.17-.37.34-.58.48-.23.16-.49.29-.73.44-.23.15-.44.35-.69.45-.43.17-.67.43-.61,1.02,1.84-1.05,3.5-2.25,5.03-3.77Z"/><path class="cls-1" d="m21.02,11.89c0,.05.01.11.02.16.32.06.65.12.97.18.81.14,1.57.16,2.32-.38.4-.29,1-.3,1.5-.45.08-.02.15-.11.23-.17-.07-.08-.14-.21-.22-.22-.5-.09-1.02-.19-1.51.03-.84.37-1.73.5-2.63.59-.23.02-.46.17-.68.26Z"/><path class="cls-1" d="m37.7,28.33c-.01.26.13.35.4.29.64-.13,1.27-.26,1.91-.38.37-.07.58-.4.53-.86-.02-.17-.55-.49-.75-.44-.43.11-.86.21-1.28.35-.49.15-.78.55-.8,1.05Z"/><path class="cls-1" d="m18.16.09l-.02.1c.11.04.22.09.34.1.87.08,1.73.17,2.6.23.75.05,1.51.08,2.26.12.46.02.93.07,1.39.06.13,0,.25-.17.37-.26-.12-.07-.23-.18-.35-.2C22.64-.02,20.51-.04,18.38.04c-.08,0-.15.03-.22.05Z"/><path class="cls-1" d="m1.87,17.46c.06.21.09.39.17.54.03.05.2.11.24.08.2-.15.38-.34.56-.51.21-.2.41-.4.62-.59.53-.46,1.07-.91,1.59-1.36.06-.05.11-.14.11-.21,0-.13-.02-.26-.03-.39-.13.04-.28.04-.4.11-.26.17-.51.36-.76.55-.63.47-1.27.92-1.89,1.4-.12.09-.16.27-.22.38Z"/><path class="cls-1" d="m48.01,19.94c-.6-.04-1.18-.08-1.76-.1-.59-.02-1.19-.01-1.78,0-.09,0-.22.09-.25.16-.06.23.2.62.43.63.94.03,1.88.07,2.82.03.62-.02.62-.08.53-.72Z"/><path class="cls-1" d="m31.89,22.57c-.18-.26-.27-.41-.38-.54-.05-.06-.13-.14-.2-.14-1.04-.08-2.02.18-2.99.51-.25.08-.36.34-.25.57.11.23.32.41.45.57.32-.21.57-.41.84-.53.53-.25,1.04-.58,1.69-.4.24.06.52-.02.83-.04Z"/><path class="cls-1" d="m9.01,24.83c-.47.11-.96.23-1.03.74-.11.87-.12,1.76-.15,2.64,0,.27.16.26.3.09.34-.42.67-.85.98-1.29.08-.11.06-.28.09-.43-.14-.02-.29-.08-.42-.05-.26.06-.34-.06-.38-.28-.06-.33,0-.61.34-.79.23-.12.44-.29.27-.64Z"/><path class="cls-1" d="m31.89,41.96c-.09-.03-.16-.08-.22-.07-.44.05-.7.34-.9.69-.33.54-.55,1.13-1.02,1.6-.19.18-.25.54-.29.82-.04.3.22.46.46.29.21-.14.41-.34.54-.55.26-.44.47-.91.7-1.37.24-.46.48-.92.72-1.4Z"/><path class="cls-1" d="m47.3,15.95s.05.09.07.13c.1-.11.24-.21.28-.34.02-.05-.16-.2-.28-.26-.16-.08-.34-.15-.52-.17-.45-.05-.87-.29-1.36-.14-.18.06-.43-.06-.64-.12-.32-.08-.62-.18-.94-.25-.05-.01-.19.13-.2.21-.04.46.28.83.74.85.95.03,1.89.05,2.84.07Z"/><path class="cls-1" d="m19.13,24.21c-.35.15-.7.27-1.02.44-.37.2-.74.41-1.08.66-.35.26-.64.62-1.02.83-.32.18-.4.38-.36.69.02.12.06.23.09.35.12-.05.27-.07.36-.16.47-.43.92-.87,1.38-1.3.11-.1.23-.2.36-.27.36-.19.73-.4,1.11-.55.41-.16.33-.39.17-.68Z"/><path class="cls-1" d="m43.17,13.42c0,.43.14.76.71.71.58-.05,1.15-.13,1.73-.15.22,0,.44.12.66.19.27.09.54.2.81.3.04-.22.08-.43.12-.65,0-.02,0-.06,0-.07-.08-.08-.17-.22-.26-.23-.47-.05-.95-.1-1.42-.11-.77-.02-1.53,0-2.33,0Z"/><path class="cls-1" d="m1.12,26.26c.08.15.13.31.23.39.06.04.22-.06.33-.11.05-.02.09-.07.13-.12.74-.81,1.48-1.62,2.22-2.44.02-.03.04-.06.06-.09.17-.24,0-.41-.15-.57-.02-.02-.21.11-.31.19-.1.08-.19.17-.28.25-.17.16-.35.3-.51.47-.5.56-1,1.13-1.49,1.7-.08.09-.14.19-.23.31Z"/><path class="cls-1" d="m10.81,30.81c-.27.23-.49.41-.7.6-.06.05-.13.11-.16.18-.27.52-.55,1.05-.8,1.58-.14.3-.04.63.24.78.06.03.21,0,.25-.05.45-.64.99-1.22,1.25-1.99.13-.4.03-.75-.07-1.1Z"/><path class="cls-1" d="m39.63,32.1s-.05-.06-.08-.09c-.28.14-.56.26-.83.42-.62.36-1.26.7-1.84,1.12-.29.21-.45.58-.66.89-.03.04.01.13.03.24.45-.33.84-.67,1.4-.62.08,0,.18-.09.26-.16.43-.33.82-.72,1.28-.97.39-.21.41-.49.45-.82Z"/><path class="cls-1" d="m26.94,36.42c.52.32.72.32,1.15,0,.19-.15.36-.33.53-.51.47-.51.93-1.03,1.39-1.55.08-.09.1-.21.17-.36-.73.04-2.73,1.57-3.23,2.42Z"/><path class="cls-1" d="m23.73,33.68c-.08-.06-.15-.12-.22-.16-.19-.11-.38-.17-.55.02-.68.73-1.37,1.46-2.04,2.2-.12.13-.22.32,0,.47.18.12.34.26.57.04.3-.29.58-.6.83-.95.35-.5.8-.92,1.21-1.38.06-.07.12-.14.21-.24Z"/><path class="cls-1" d="m28.5,29.74c.33.17.64.17.81-.05.4-.51,1.03-.66,1.54-1.01.36-.24.72-.49,1.04-.78.22-.2.22-.51.08-.66-1.21.75-2.55,1.31-3.45,2.5Z"/><path class="cls-1" d="m8.18,30.25c.13-.12.26-.26.41-.36.84-.57,1.26-1.46,1.79-2.28.03-.05.05-.11.04-.17-.01-.08-.03-.2-.09-.24-.05-.04-.19-.03-.24.01-.18.15-.41.29-.51.49-.2.4-.49.69-.87.92-.68.41-.83.9-.53,1.62Z"/><path class="cls-1" d="m34.24,14.19c.41.27.76.49,1.11.72.12.07.25.21.36.19.59-.11,1.17-.27,1.76-.4.38-.08.7-.41,1.13-.3.02,0,.1-.15.09-.16-.14-.1-.28-.27-.42-.27-.27,0-.55.06-.79.18-.59.29-1.16.25-1.77.06-.46-.14-.94-.23-1.46-.01Z"/><path class="cls-1" d="m24.46,36.98c.33.24.59.24.9-.05.48-.45.93-.94,1.4-1.4.22-.22.47-.42.68-.65.08-.09.14-.28.1-.38-.07-.17-.24-.25-.42-.11-.15.11-.29.22-.43.35-.24.22-.45.46-.69.67-.54.49-1.12.94-1.53,1.59Z"/><path class="cls-1" d="m32.13,25.41c-.17.06-.26.08-.34.13-.32.24-.64.49-.96.73-.29.21-.56.47-.88.58-.53.17-.83.49-.97,1.01-.02.06,0,.16.02.18.05.03.16.05.21.02.19-.11.35-.25.54-.37.73-.46,1.47-.9,2.17-1.38.17-.12.26-.38.34-.59.03-.07-.09-.2-.14-.31Z"/><path class="cls-1" d="m7.99,22.72s.08.04.13.07c.1-.07.21-.13.3-.21.71-.61,1.43-1.21,2.13-1.83.16-.14.3-.32.41-.5.05-.08,0-.22-.01-.34-.13.01-.28-.02-.37.04-.34.23-.63.52-.98.72-.62.38-1.1.89-1.47,1.51-.09.15-.09.36-.14.54Z"/><path class="cls-1" d="m47.98,23.95c-.3-.05-.53-.1-.77-.12-.54-.05-1.08-.1-1.62-.11-.29,0-.59.06-.88.13-.11.03-.2.15-.3.22.08.1.16.27.25.28.46.05.92.06,1.38.09.18.01.37.04.55.05.46.04.93.08,1.43.12-.03-.3-.04-.51-.06-.67Z"/><path class="cls-1" d="m45.08,21.16s0,0,0,.01c-.09,0-.19,0-.28,0-.24-.01-.45,0-.45.33,0,.34.21.34.46.35,1.01.04,2.03.08,3.04.16.23.02.3-.05.31-.23.01-.19.06-.42-.27-.4-.28.01-.56.02-.84,0-.66-.06-1.32-.14-1.98-.22Z"/><path class="cls-1" d="m44.51,23.18c.6,0,1.18-.02,1.76,0,.54.02,1.08.1,1.62.12.09,0,.19-.13.28-.2-.08-.08-.15-.23-.24-.24-.43-.08-.89-.06-1.29-.21-.57-.22-1.1-.37-1.72-.17-.49.16-.6.27-.4.69Z"/><path class="cls-1" d="m21.64,33.3s-.07-.13-.13-.14c-.1-.02-.22,0-.31.04-.83.33-1.23,1.1-1.75,1.75-.17.21-.03.33.1.47.15.16.28.17.44.01.41-.42.86-.82,1.24-1.27.19-.22.26-.54.41-.85Z"/><path class="cls-1" d="m8.85,32.27c.17-.28.33-.53.48-.77.34-.57.69-1.13,1.02-1.7.17-.3.28-.62.09-1.01-.34.45-.65.86-.97,1.26-.23.28-.48.54-.72.81-.35.38-.18.81-.12,1.23,0,.07.14.12.23.19Z"/><path class="cls-1" d="m15.9,29.09s.11-.05.13-.09c.35-.8,1.04-1.27,1.67-1.81.35-.3.64-.68.94-1.04.07-.08.05-.23.09-.43-.29.15-.52.22-.69.36-.69.6-1.37,1.22-2.04,1.85-.32.31-.35.86-.1,1.17Z"/><path class="cls-1" d="m40.06,30.48s-.15-.18-.23-.16c-.26.06-.53.14-.77.27-.58.3-1.2.55-1.61,1.1-.02.03-.08.05-.12.06-.26.09-.31.32-.34.55-.03.19.06.27.24.16.44-.28.88-.57,1.32-.85.18-.11.37-.23.57-.28.5-.12.9-.43.94-.85Z"/><path class="cls-1" d="m32.13,23.77c-.08-.03-.17-.1-.24-.08-.1.03-.2.11-.28.2-.54.56-1.16,1-1.85,1.35-.18.09-.37.28-.44.46-.06.15.04.37.06.56.15-.05.33-.06.46-.15.4-.28.78-.58,1.16-.88.21-.17.43-.34.59-.55.2-.26.33-.57.53-.91Z"/><path class="cls-1" d="m38.19,30.26s.09-.02.16-.07c.38-.28.8-.43,1.26-.49.36-.05.62-.25.71-.61.02-.08.01-.2-.04-.25-.04-.04-.16-.02-.24,0-.44.09-.88.22-1.33.26-.58.05-1,.27-1.2.85-.06.18,0,.28.16.31.13.03.28,0,.52,0Z"/><path class="cls-1" d="m26.56,11.03c.99,0,1.92.04,2.84-.02.4-.03.78-.27,1.2-.43-.71-.52-3.29-.38-4.04.45Z"/><path class="cls-1" d="m10.6,22.06c-.11.03-.21.04-.28.09-.64.45-1.29.91-1.92,1.38-.18.14-.32.33-.46.52-.05.06-.06.19-.03.25.03.05.17.08.24.06.41-.14.88-.18,1.12-.63.02-.05.08-.09.13-.1.73-.22,1.13-.71,1.2-1.56Z"/><path class="cls-1" d="m12.91,35.74c-.23.36-.4.73-.67,1.02-.32.34-.37.73-.34,1.15,0,.14.14.29.26.39.05.04.28,0,.3-.06.15-.32.25-.66.38-.99.07-.18.14-.37.26-.51.31-.39.23-.79-.2-.99Z"/><path class="cls-1" d="m29.07,25.11c.09-.06.14-.08.19-.12.49-.4.99-.8,1.48-1.2.11-.09.2-.2.29-.3.14-.17.05-.29-.12-.34-.09-.03-.21,0-.3.03-.51.24-1.03.48-1.52.77-.12.07-.18.34-.18.51,0,.2.1.4.17.65Z"/><path class="cls-1" d="m39.13,23.7c.28-.04.56-.03.8-.12.31-.11.7-.16.84-.53.04-.11-.02-.28-.07-.41-.02-.04-.18-.07-.24-.04-.62.36-1.33.29-1.98.47-.12.03-.23.12-.34.17.1.11.18.28.3.33.22.08.47.09.7.12Z"/><path class="cls-1" d="m36.82,15.66c-.1.05-.2.1-.29.14.05.1.08.25.16.28.28.12.58.29.86.27.6-.05,1.19-.2,1.77-.34.12-.03.22-.17.33-.26-.13-.11-.25-.25-.41-.32-.11-.05-.28-.02-.41.01-.66.17-1.29.59-2.02.21Z"/><path class="cls-1" d="m39.34,21.92c.02.05.03.11.05.16.36-.12.72-.24,1.08-.38.1-.04.17-.16.26-.24-.11-.1-.23-.28-.34-.27-.38.02-.76.1-1.15.15-.24.03-.49.03-.73.07-.11.02-.27.08-.29.15-.05.16-.03.35,0,.52,0,.04.17.09.24.07.3-.06.59-.15.88-.23Z"/><path class="cls-1" d="m38.27,20.24c-.05.3.08.38.36.33.16-.03.32-.04.48-.05.4-.03.81-.03,1.21-.09.11-.01.24-.16.28-.27.03-.08-.07-.3-.12-.3-.47-.03-.94-.03-1.4-.02-.16,0-.32.07-.47.06-.25,0-.38.07-.33.34Z"/><path class="cls-1" d="m8.8,20.07c.05,0,.07,0,.08,0,.74-.23,1.35-.65,1.84-1.25.07-.09,0-.28,0-.43-.13,0-.29-.03-.38.04-.36.24-.7.5-1.03.77-.22.17-.43.36-.62.55-.05.05-.07.18-.04.25.02.05.13.06.17.08Z"/><path class="cls-1" d="m8.91,18.56c.09-.02.11-.02.13-.03.5-.32,1-.62,1.48-.97.09-.06.14-.32.08-.4-.11-.16-.23-.39-.53-.25-.6.3-1.06.71-1.23,1.38-.02.08.04.18.06.27Z"/><path class="cls-1" d="m40.77,24.6c-.05-.32-.15-.44-.41-.38-.33.08-.67.14-1.01.19-.3.04-.6.04-.89.07-.26.03-.35.23-.33.44,0,.08.2.22.28.2.67-.09,1.35-.21,2.02-.33.13-.02.24-.14.34-.2Z"/><path class="cls-1" d="m38.17,26.56c.82-.16,1.55-.29,2.28-.45.07-.02.14-.2.14-.31,0-.04-.18-.15-.27-.13-.7.11-1.4.23-2.1.37-.1.02-.21.2-.23.32-.01.07.14.17.17.21Z"/><path class="cls-1" d="m11.83,13.35c-.21-.33-.44-.28-.68-.19-.16.06-.31.16-.48.19-.56.12-.78.56-.99,1.02-.03.06.01.19.06.23.05.03.17.01.23-.03.41-.27.82-.54,1.23-.81.2-.13.4-.26.62-.41Z"/><path class="cls-1" d="m38.19,18.82c-.02.23.07.4.31.36.54-.09,1.07-.21,1.6-.34.11-.03.19-.18.29-.27-.12-.06-.25-.19-.37-.18-.53.02-1.05.09-1.58.12-.23.01-.27.13-.25.32Z"/><path class="cls-1" d="m1.29,18.3c0-.1,0-.19,0-.29,0-.25-.16-.28-.32-.16-.49.36-.82.85-.97,1.45-.02.08.05.19.08.28.09-.04.19-.06.26-.11.21-.17.4-.37.63-.52.26-.16.4-.35.32-.65Z"/><path class="cls-1" d="m37.71,17.41v.14c.14.03.27.07.41.09.16.02.32.02.48.04.07,0,.15.06.2.03.36-.15.73-.16,1.11-.08.08.02.28-.15.27-.23-.01-.19-.1-.38-.17-.56,0,0-.08,0-.13.02-.53.13-1.05.26-1.58.39-.2.05-.4.11-.6.16Z"/><path class="cls-1" d="m10.4,24.11c-.38.18-.83.83-.82,1.18,0,.09.02.18.05.27.08.24.2.29.39.09.33-.34.44-.76.5-1.2.01-.1-.07-.22-.12-.34Z"/><path class="cls-1" d="m10.89,16.55c.19.4.44.32.7.21.46-.2.75-.64.7-1.23-.5.37-.96.7-1.4,1.02Z"/><path class="cls-1" d="m.28,28.14c.4-.09.55-.42.65-.74.04-.12-.14-.32-.22-.48-.12.06-.28.09-.34.19-.2.31-.36.65-.09,1.03Z"/></g></svg>