<svg xmlns="http://www.w3.org/2000/svg" xmlns:xlink="http://www.w3.org/1999/xlink" preserveAspectRatio="xMidYMid meet" version="1.0" viewBox="43.7 15.1 191.8 268.7" zoomAndPan="magnify" style="fill: rgb(31, 46, 170);" original_string_length="3531"><g id="__id0_s4dftlitp"><path d="m78.086 283.14c-5.5171-11.248 1.7132-23.664-1.0462-35.444 0.87095-19.072 2.5199-39.323-8.2753-56.665-7.3802-12.479-20.132-23.711-19.135-38.842 0.98232-16.765-5.8866-33.204-3.7714-49.91 5.2852-10.998 19.594-15.746 24.998-26.922 10.025-6.6803 5.9238-21.465 21.039-23.536 13.462-2.7479 25.309-9.0234 36.113-16.507 12.097-7.7609 24.939-15.847 39.853-18.178 18.95-2.0137 19.164 17.478 29.376 25.738 15.204-0.50239 34.361 4.7613 35.519 21.046 2.8197 16.827-6.6877 32.938-4.5959 49.793 1.1213 12.209-8.5742 21.823-10.816 33.022-1.7236 15.198 1.8503 33.736-12.657 44.926-6.9626 10.837-4.5601 24.368-10.878 35.674-5.5787 11.946-0.86552 24.682-3.3246 36.917-6.0502 7.5849-7.9428-11.584-9.6953-15.344-0.65509-13.226-22.323-16.795-22.428-1.4977 0.0988 5.3741-4.2126 21.534-9.0375 9.4669 2.0268-10.146-0.45253-19.844-10.648-25.744-1.8251-7.9876 15.863-4.9532 16.182-14.501 0.41797-6.7324 15.491-16.266 12.323-4.2105-3.8094 13.449 15.892 19.185 20.579 5.4292 8.4397-11.53-8.8741-26.174 8.411-33.032 13.419-7.0262 11.625-21.455 12.963-33.278-0.504-12.008 11.174-21.127 10.033-33.1-1.9718-5.7966 4.2174-18.902-9.1199-13.415-5.2229 3.8071-28.723-3.1309-15.447 6.9316 10.838 1.7629 7.2185 8.8498 5.6496 14.923 9.122 10.395-12.776 6.9922-10.254 18.615-2.5356 9.9666-15.609 8.7714-19.298 18.862-7.3497 4.8861-4.9038 15.46-5.7833 19.906-10.379-3.9554-10.226-18.193-21.425-22.622-11.971-8.1327-28.898-10.791-43.065-6.5825-11.775-1.0851 3.1206-10.622-4.7054-16.157-0.22051-6.088 7.553-11.71-2.66-16.02-8.3516-3.2935-5.1569-9.9015 3.091-6.4736 8.2515 0.43074 17.863-16.396 17.199-1.6262 2.3964 6.5924 7.9678 13.611-4.159 13.392-14.159 6.7211 3.1102 22.075 14.862 15.836 11.637-1.9482 20.738-10.763 25.231-20.145 0.01297-11.289-5.0169-22.861-7.856-34.004-5.3489-14.665-22.51-15.081-35.488-9.0739-15.649 3.1472-32.559 6.0775-45.127 15.519-10.216 8.3655-3.0314 21.004-3.836 31.511 1.5057 14.747-2.091 30.814 7.3387 44.002 7.4017 12.652 19.749 23.735 19.894 38.867 3.1041 12.652-1.2032 25.294 0.50177 37.808 3.2847 10.697 5.2096 25.561-3.452 34.887-1.012 0.40036-2.2524 0.32404-3.172-0.2374zm83.008-166.36c10.479-11.35 1.0145-25.705-2.0493-37.808 0.48123-13.397-12.389-24.126-26.844-16.669-13.52 3.7272-25.896 11.432-40.634 10.451-7.3931-1.7044-18.107 9.4066-4.8715 6.375 15.862-1.9373 31.051-11.772 47.399-7.816 13.46 5.0746 12.374 20.878 17.873 31.311 2.682 3.389 1.7413 17.563 9.1269 14.156zm18.692-13.378c3.0342-11.138-3.839-22.519-3.5543-33.727-4.6525-9.8264-6.4795-27.702-22.705-25.496-18.63 3.1067-35.624 11.041-53.565 16.204-10.459-1.2662-9.3192 11.243 0.52011 5.5007 14.49-4.1481 28.488-9.9761 43.397-12.753 16.951-1.9217 20.073 16.723 23.639 27.511 3.361 6.262 2.0418 23.64 12.268 22.76zm27.453-10.218c14.994-2.2359 20.456-16.831 18.213-28.656-0.2404-11.333-23.815-20.579-28.891-9.0716 2.9447 9.1147 19.769 0.94226 21.454 13.017 6.3187 15.61-14.808 10.844-24.047 7.8012-12.807-1.1228-8.5253 19.52 3.4122 17.419 3.2842 0.29215 6.6432 0.18188 9.8592-0.50954zm3.2476-18.819c9.0735-12.074-25.047-12.383-15.229-3.0448 5.1406 0.75925 9.9975 2.7241 15.229 3.0448zm-25.938-11.951c9.9642-10.805-0.83467-28.048-10.135-36.042-12.894-2.1315-27.234 6.659-35.983 13.364 9.8298-0.26568 21.639-7.1216 30.502 0.86079 9.6233 4.4528 4.987 18.697 15.615 21.817z" style="fill: inherit;"/></g></svg>