<svg xmlns="http://www.w3.org/2000/svg" xmlns:xlink="http://www.w3.org/1999/xlink" width="375" zoomAndPan="magnify" viewBox="0 0 281.25 393.749989" height="525" preserveAspectRatio="xMidYMid meet" version="1.0"><defs><filter x="0%" y="0%" width="100%" height="100%" id="e22d582891"><feColorMatrix values="0 0 0 0 1 0 0 0 0 1 0 0 0 0 1 0 0 0 1 0" color-interpolation-filters="sRGB"/></filter><mask id="636c38f072"><g filter="url(#e22d582891)"><rect x="-28.125" width="337.5" fill="#000000" y="-39.374999" height="472.499987" fill-opacity="0.56"/></g></mask><clipPath id="9c3a98bb29"><path d="M 1 2 L 276 2 L 276 391.355469 L 1 391.355469 Z M 1 2 " clip-rule="nonzero"/></clipPath><clipPath id="89d8cb2f34"><rect x="0" width="277" y="0" height="392"/></clipPath></defs><g mask="url(#636c38f072)"><g transform="matrix(1, 0, 0, 1, 1, 1)"><g clip-path="url(#89d8cb2f34)"><g clip-path="url(#9c3a98bb29)"><path fill="#1f2eaa" d="M 49.316406 390.496094 C 41.265625 374.082031 51.816406 355.96875 47.789062 338.78125 C 49.058594 310.953125 51.464844 281.402344 35.714844 256.101562 C 24.945312 237.890625 6.339844 221.503906 7.792969 199.425781 C 9.226562 174.964844 -0.796875 150.976562 2.292969 126.601562 C 10.003906 110.554688 30.878906 103.625 38.765625 87.320312 C 53.394531 77.574219 47.410156 56 69.464844 52.980469 C 89.105469 48.96875 106.390625 39.8125 122.15625 28.894531 C 139.808594 17.570312 158.542969 5.769531 180.304688 2.371094 C 207.957031 -0.570312 208.269531 27.871094 223.167969 39.925781 C 245.351562 39.191406 273.304688 46.871094 274.992188 70.632812 C 279.109375 95.183594 265.234375 118.691406 268.289062 143.285156 C 269.925781 161.097656 255.777344 175.128906 252.507812 191.46875 C 249.992188 213.644531 255.207031 240.691406 234.039062 257.019531 C 223.878906 272.832031 227.386719 292.574219 218.167969 309.070312 C 210.027344 326.5 216.902344 345.085938 213.316406 362.9375 C 204.488281 374.003906 201.726562 346.035156 199.167969 340.546875 C 198.214844 321.25 166.597656 316.042969 166.445312 338.363281 C 166.589844 346.203125 160.296875 369.78125 153.257812 352.175781 C 156.214844 337.371094 152.597656 323.222656 137.722656 314.613281 C 135.058594 302.957031 160.867188 307.386719 161.332031 293.453125 C 161.941406 283.632812 183.933594 269.71875 179.3125 287.3125 C 173.753906 306.933594 202.5 315.304688 209.339844 295.234375 C 221.652344 278.410156 196.390625 257.042969 221.613281 247.035156 C 241.191406 236.785156 238.574219 215.730469 240.527344 198.480469 C 239.792969 180.957031 256.832031 167.652344 255.164062 150.183594 C 252.289062 141.726562 261.320312 122.605469 241.859375 130.609375 C 234.238281 136.164062 199.949219 126.042969 219.320312 140.722656 C 235.132812 143.296875 229.851562 153.636719 227.5625 162.496094 C 240.875 177.664062 208.921875 172.699219 212.601562 189.660156 C 208.902344 204.203125 189.828125 202.457031 184.445312 217.179688 C 173.71875 224.308594 177.289062 239.738281 176.003906 246.226562 C 160.863281 240.453125 161.085938 219.679688 144.746094 213.21875 C 127.277344 201.351562 102.578125 197.472656 81.910156 203.613281 C 64.726562 202.03125 86.460938 188.113281 75.042969 180.039062 C 74.722656 171.15625 86.0625 162.953125 71.160156 156.664062 C 58.976562 151.859375 63.636719 142.214844 75.671875 147.21875 C 87.710938 147.847656 101.734375 123.292969 100.765625 144.84375 C 104.261719 154.464844 112.390625 164.703125 94.699219 164.386719 C 74.039062 174.191406 99.238281 196.59375 116.382812 187.492188 C 133.363281 184.648438 146.640625 171.789062 153.199219 158.097656 C 153.21875 141.625 145.878906 124.742188 141.734375 108.484375 C 133.929688 87.085938 108.890625 86.476562 89.953125 95.242188 C 67.121094 99.835938 42.449219 104.109375 24.109375 117.886719 C 9.203125 130.09375 19.6875 148.535156 18.511719 163.863281 C 20.710938 185.382812 15.460938 208.824219 29.222656 228.066406 C 40.019531 246.527344 58.035156 262.699219 58.25 284.777344 C 62.777344 303.238281 56.492188 321.683594 58.980469 339.945312 C 63.773438 355.550781 66.582031 377.242188 53.945312 390.847656 C 52.464844 391.433594 50.65625 391.320312 49.316406 390.5 Z M 170.433594 147.761719 C 185.722656 131.199219 171.910156 110.253906 167.441406 92.59375 C 168.144531 73.046875 149.363281 57.390625 128.273438 68.273438 C 108.546875 73.710938 90.488281 84.953125 68.984375 83.523438 C 58.195312 81.035156 42.566406 97.246094 61.875 92.824219 C 85.019531 89.996094 107.183594 75.648438 131.035156 81.417969 C 150.675781 88.824219 149.089844 111.882812 157.113281 127.105469 C 161.027344 132.050781 159.65625 152.730469 170.433594 147.761719 Z M 197.707031 128.242188 C 202.132812 111.988281 192.105469 95.382812 192.519531 79.027344 C 185.730469 64.691406 183.066406 38.609375 159.390625 41.828125 C 132.207031 46.359375 107.410156 57.9375 81.234375 65.472656 C 65.972656 63.625 67.636719 81.875 81.992188 73.496094 C 103.136719 67.445312 123.558594 58.941406 145.3125 54.890625 C 170.046875 52.085938 174.601562 79.289062 179.804688 95.03125 C 184.707031 104.167969 182.785156 129.523438 197.703125 128.238281 Z M 237.761719 113.332031 C 259.640625 110.070312 267.609375 88.773438 264.335938 71.519531 C 263.984375 54.984375 229.589844 41.492188 222.179688 58.28125 C 226.476562 71.582031 251.027344 59.65625 253.484375 77.277344 C 262.703125 100.050781 231.878906 93.097656 218.398438 88.660156 C 199.710938 87.019531 205.957031 117.140625 223.375 114.074219 C 228.167969 114.5 233.070312 114.339844 237.761719 113.332031 Z M 242.5 85.871094 C 255.738281 68.253906 205.953125 67.804688 220.28125 81.429688 C 227.78125 82.539062 234.867188 85.40625 242.5 85.871094 Z M 204.65625 68.433594 C 219.191406 52.667969 203.4375 27.511719 189.867188 15.847656 C 171.050781 12.734375 150.128906 25.5625 137.363281 35.34375 C 151.707031 34.957031 168.9375 24.953125 181.867188 36.601562 C 195.910156 43.097656 189.144531 63.882812 204.652344 68.433594 Z M 204.65625 68.433594 " fill-opacity="1" fill-rule="nonzero"/></g></g></g></g></svg>