<svg xmlns="http://www.w3.org/2000/svg" xmlns:xlink="http://www.w3.org/1999/xlink" preserveAspectRatio="xMidYMid meet" version="1.0" viewBox="-12.6 -5.0 1175.9 1131.5" zoomAndPan="magnify" style="fill: rgb(0, 0, 0);" original_string_length="1271"><g id="__id1_s4dftlitp"><path d="M22.7,30.3c17.6,52.9,50,44.1,23.5,120.5S-12.6,218.3,5,288.9s44.1,61.7,38.2,135.2s-5.9,141.1-5.9,141.1 S75.6,609.2,55,685.6s-44.1,73.5-29.4,141.1s26.4,61.7,11.8,117.6s8.8,82.3,2.9,111.7c-5.9,29.4-2.9,41.1-2.9,41.1 s85.2-26.4,149.9-23.5c64.7,2.9,132.2,23.5,179.3,29.4c47,5.9,138.1-41.1,179.3-23.5c41.1,17.6,47,14.7,85.2,14.7 c38.2,0,55.8,32.3,102.9,14.7c47-17.6,61.7-29.4,120.5-20.6c58.8,8.8,50-29.4,111.7-11.8c61.7,17.6,76.4,32.3,102.9,29.4 s73.5-26.4,73.5-26.4s-17.6-47-26.4-105.8c-8.8-58.8,26.4-73.5,20.6-141.1c-5.9-67.6-23.5-38.2-17.6-111.7s44.1-85.2,17.6-144 c-26.4-58.8-58.8-26.4-38.2-82.3s55.8-35.3,38.2-82.3c-17.6-47-29.4-44.1-17.6-82.3s23.5-26.4,0-82.3c-23.5-55.8-50-79.3-26.4-114.6 c23.5-35.3,41.1-67.6,35.3-88.2s0,35.3-79.3,23.5S830.8,42,733.8,30.3s-126.4,2.9-217.5,2.9c-91.1,0-126.4-20.6-214.5-29.4 s-117.6,0-158.7,2.9S22.7,30.3,22.7,30.3z" style="fill: rgb(253, 192, 225);"/></g></svg>